<svg xmlns="http://www.w3.org/2000/svg" version="1.1" xmlns:xlink="http://www.w3.org/1999/xlink" xmlns:svgjs="http://svgjs.dev/svgjs" width="1000" height="209" viewBox="0 0 1000 209"><g transform="matrix(1,0,0,1,-0.6060522110065563,-0.24853705399490877)"><svg viewBox="0 0 396 83" data-background-color="#ffffff" preserveAspectRatio="xMidYMid meet" height="209" width="1000" xmlns="http://www.w3.org/2000/svg" xmlns:xlink="http://www.w3.org/1999/xlink"><g id="tight-bounds" transform="matrix(1,0,0,1,0.2399966755585865,0.09870131809367422)"><svg viewBox="0 0 395.52 82.80259736381268" height="82.80259736381268" width="395.52"><g><svg viewBox="0 0 577.4883156948063 120.89788755760364" height="82.80259736381268" width="395.52"><g><rect width="4.975943775291628" height="120.89788755760364" x="163.9663410941439" y="0" fill="#008080" opacity="1" stroke-width="0" stroke="transparent" fill-opacity="1" class="rect-o-0" data-fill-palette-color="primary" rx="1%" id="o-0" data-palette-color="#008080"></rect></g><g transform="matrix(1,0,0,1,181.96831569480628,0.30074101382487584)"><svg viewBox="0 0 395.52 120.29640552995389" height="120.29640552995389" width="395.52"><g id="textblocktransform"><svg viewBox="0 0 395.52 120.29640552995389" height="120.29640552995389" width="395.52" id="textblock"><g><svg viewBox="0 0 395.52 120.29640552995389" height="120.29640552995389" width="395.52"><g transform="matrix(1,0,0,1,0,0)"><svg width="395.52" viewBox="1.3000001907348633 -32.75 240.89999389648438 69.60000610351562" height="120.29640552995389" data-palette-color="#008080"><svg></svg><svg></svg><g class="undefined-text-0" data-fill-palette-color="primary" id="text-0"><path xmlns="http://www.w3.org/2000/svg" d="M22.25-12.75c2.767 4.3 5.267 7.917 7.5 10.85v0l-0.1 0.9c-2.533 0.833-5.217 1.35-8.05 1.55v0l-0.8-0.65c-2-3.733-3.733-7.15-5.2-10.25v0h-4.25l0.3 10.35h-8.15l0.45-9.55-0.45-22.7 13.6-0.05c3.5 0 6.193 0.84 8.08 2.52 1.88 1.687 2.82 4.097 2.82 7.23v0c0 1.967-0.5 3.8-1.5 5.5-1 1.7-2.417 3.133-4.25 4.3zM11.7-26.35l-0.2 9.9 4.35 0.2c1.233-0.467 2.14-1.15 2.72-2.05 0.587-0.9 0.88-2.067 0.88-3.5v0c0-1.567-0.407-2.727-1.22-3.48-0.82-0.747-2.097-1.153-3.83-1.22v0zM47.1-6.3l8.1-0.3 0.45 0.6-0.5 6h-21.3l0.45-9.55-0.45-22.7h21.6l0.45 0.6-0.55 6-7.85-0.3-5.5 0.05-0.1 6.45h5.25l5.25-0.15 0.45 0.6-0.5 6-5.75-0.15h-4.85l-0.05 2.8 0.1 4zM71.1-32.75c2.867 0 5.767 0.567 8.7 1.7v0l-1.3 6.8-1.2 0.45c-1.267-0.833-2.533-1.483-3.8-1.95-1.267-0.467-2.367-0.7-3.3-0.7v0c-1.1 0-1.973 0.273-2.62 0.82-0.653 0.553-0.98 1.197-0.98 1.93v0c0 0.833 0.41 1.54 1.23 2.12 0.813 0.587 2.103 1.28 3.87 2.08v0c1.867 0.867 3.377 1.657 4.53 2.37 1.147 0.72 2.147 1.68 3 2.88 0.847 1.2 1.27 2.667 1.27 4.4v0c0 1.933-0.523 3.683-1.57 5.25-1.053 1.567-2.547 2.807-4.48 3.72-1.933 0.92-4.167 1.38-6.7 1.38v0c-3.367 0-6.7-0.667-10-2v0l1.15-7.25 0.85-0.5c1.4 1.167 2.927 2.073 4.58 2.72 1.647 0.653 3.07 0.98 4.27 0.98v0c1.267 0 2.227-0.283 2.88-0.85 0.647-0.567 0.97-1.233 0.97-2v0c0-0.9-0.417-1.65-1.25-2.25-0.833-0.6-2.133-1.3-3.9-2.1v0c-1.8-0.833-3.273-1.61-4.42-2.33-1.153-0.713-2.147-1.67-2.98-2.87-0.833-1.2-1.25-2.667-1.25-4.4v0c0-1.967 0.527-3.743 1.58-5.33 1.047-1.58 2.513-2.82 4.4-3.72 1.88-0.9 4.037-1.35 6.47-1.35zM93.75-32.25l-0.45 21.9 0.3 10.35h-8.15l0.45-9.55-0.45-22.7zM114.5-32.45c4.733 0 8.35 1.29 10.85 3.87 2.5 2.587 3.75 6.313 3.75 11.18v0c0 5.733-1.433 10.133-4.3 13.2-2.867 3.067-6.967 4.6-12.3 4.6v0c-3.067 0-6.933-0.133-11.6-0.4v0h-0.05l0.45-9.55-0.45-22.7h0.05zM114-5.75c4.433 0 6.65-3.233 6.65-9.7v0c0-3.8-0.533-6.517-1.6-8.15-1.067-1.633-2.8-2.45-5.2-2.45v0c-1.767 0-3.383 0.067-4.85 0.2v0l-0.3 15.5 0.1 4.2c1.967 0.267 3.7 0.4 5.2 0.4zM146.7-6.3l8.1-0.3 0.45 0.6-0.5 6h-21.3l0.45-9.55-0.45-22.7h21.6l0.45 0.6-0.55 6-7.85-0.3-5.5 0.05-0.1 6.45h5.25l5.25-0.15 0.45 0.6-0.5 6-5.75-0.15h-4.85l-0.05 2.8 0.1 4zM187.6-32.4l-0.45 22.2 0.3 10.2h-8.8l-11.45-19.95h-0.5l-0.05 8.6 0.3 11.35h-7.35l0.4-9.5-0.4-22.75h8.75l11.5 19.95h0.5l-0.2-19.65zM207.95-32.7c3.067 0 5.85 0.55 8.35 1.65v0l-1.45 6.65-0.55 0.3c-0.933-0.633-1.99-1.127-3.17-1.48-1.187-0.347-2.347-0.52-3.48-0.52v0c-2.4 0-4.173 0.75-5.32 2.25-1.153 1.5-1.73 3.867-1.73 7.1v0c0 7 2.483 10.5 7.45 10.5v0c1.1 0 2.267-0.15 3.5-0.45 1.233-0.3 2.35-0.717 3.35-1.25v0l0.7 0.4-0.65 6.65c-2.333 0.933-4.85 1.4-7.55 1.4v0c-5.033 0-8.85-1.4-11.45-4.2-2.6-2.8-3.9-6.85-3.9-12.15v0c0-5.367 1.383-9.517 4.15-12.45 2.767-2.933 6.683-4.4 11.75-4.4zM233.4-6.3l8.1-0.3 0.45 0.6-0.5 6h-21.3l0.45-9.55-0.45-22.7h21.6l0.45 0.6-0.55 6-7.85-0.3-5.5 0.05-0.1 6.45h5.25l5.25-0.15 0.45 0.6-0.5 6-5.75-0.15h-4.85l-0.05 2.8 0.1 4z" fill="#008080" fill-rule="nonzero" stroke="none" stroke-width="1" stroke-linecap="butt" stroke-linejoin="miter" stroke-miterlimit="10" stroke-dasharray="" stroke-dashoffset="0" font-family="none" font-weight="none" font-size="none" text-anchor="none" style="mix-blend-mode: normal" data-fill-palette-color="primary" opacity="1"></path><path xmlns="http://www.w3.org/2000/svg" d="M14.65 3.55c2.867 0 5.767 0.567 8.7 1.7v0l-1.3 6.8-1.2 0.45c-1.267-0.833-2.533-1.483-3.8-1.95-1.267-0.467-2.367-0.7-3.3-0.7v0c-1.1 0-1.973 0.273-2.62 0.82-0.653 0.553-0.98 1.197-0.98 1.93v0c0 0.833 0.41 1.54 1.23 2.12 0.813 0.587 2.103 1.28 3.87 2.08v0c1.867 0.867 3.377 1.657 4.53 2.37 1.147 0.72 2.147 1.68 3 2.88 0.847 1.2 1.27 2.667 1.27 4.4v0c0 1.933-0.523 3.683-1.57 5.25-1.053 1.567-2.547 2.807-4.48 3.72-1.933 0.92-4.167 1.38-6.7 1.38v0c-3.367 0-6.7-0.667-10-2v0l1.15-7.25 0.85-0.5c1.4 1.167 2.927 2.073 4.58 2.72 1.647 0.653 3.07 0.98 4.27 0.98v0c1.267 0 2.227-0.283 2.88-0.85 0.647-0.567 0.97-1.233 0.97-2v0c0-0.9-0.417-1.65-1.25-2.25-0.833-0.6-2.133-1.3-3.9-2.1v0c-1.8-0.833-3.273-1.61-4.42-2.33-1.153-0.713-2.147-1.67-2.98-2.87-0.833-1.2-1.25-2.667-1.25-4.4v0c0-1.967 0.527-3.743 1.58-5.33 1.047-1.58 2.513-2.82 4.4-3.72 1.88-0.9 4.037-1.35 6.47-1.35zM42.6 4c3.467 0 6.143 0.867 8.03 2.6 1.88 1.733 2.82 4.2 2.82 7.4v0c0 2.5-0.567 4.69-1.7 6.57-1.133 1.887-2.733 3.347-4.8 4.38-2.067 1.033-4.467 1.55-7.2 1.55v0h-2.9l0.3 9.8h-8.15l0.45-9.55-0.45-22.7zM41.2 20.65c1.267-0.433 2.21-1.127 2.83-2.08 0.613-0.947 0.92-2.203 0.92-3.77v0c0-1.667-0.407-2.9-1.22-3.7-0.82-0.8-2.097-1.233-3.83-1.3v0l-2.7 0.15-0.25 10.5zM70.8 3.55c4.6 0 8.15 1.373 10.65 4.12 2.5 2.753 3.75 6.663 3.75 11.73v0c0 5.533-1.367 9.823-4.1 12.87-2.733 3.053-6.583 4.58-11.55 4.58v0c-4.567 0-8.1-1.41-10.6-4.23-2.5-2.813-3.75-6.803-3.75-11.97v0c0-5.467 1.357-9.683 4.07-12.65 2.72-2.967 6.563-4.45 11.53-4.45zM70.1 10.05c-1.567 0-2.817 0.307-3.75 0.92-0.933 0.62-1.617 1.62-2.05 3-0.433 1.387-0.65 3.263-0.65 5.63v0c0 2.833 0.217 5.057 0.65 6.67 0.433 1.62 1.127 2.78 2.08 3.48 0.947 0.7 2.237 1.05 3.87 1.05v0c1.6 0 2.867-0.31 3.8-0.93 0.933-0.613 1.61-1.62 2.03-3.02 0.413-1.4 0.62-3.317 0.62-5.75v0c0-2.8-0.217-5-0.65-6.6-0.433-1.6-1.117-2.743-2.05-3.43-0.933-0.68-2.233-1.02-3.9-1.02zM109.55 4.05l0.45 0.6-0.45 5.95-6.3-0.3h-1.4l-0.25 15.65 0.3 10.35h-8.1l0.45-9.55-0.25-16.45h-1.5l-6.35 0.3-0.5-0.6 0.5-5.95zM135.05 4.05l0.45 0.6-0.45 5.95-6.3-0.3h-1.4l-0.25 15.65 0.3 10.35h-8.1l0.45-9.55-0.25-16.45h-1.5l-6.35 0.3-0.5-0.6 0.5-5.95zM152.5 30l8.1-0.3 0.45 0.6-0.5 6h-21.3l0.45-9.55-0.45-22.7h21.6l0.45 0.6-0.55 6-7.85-0.3-5.5 0.05-0.1 6.45h5.25l5.25-0.15 0.45 0.6-0.5 6-5.75-0.15h-4.85l-0.05 2.8 0.1 4zM184.1 23.55c2.767 4.3 5.267 7.917 7.5 10.85v0l-0.1 0.9c-2.533 0.833-5.217 1.35-8.05 1.55v0l-0.8-0.65c-2-3.733-3.733-7.15-5.2-10.25v0h-4.25l0.3 10.35h-8.15l0.45-9.55-0.45-22.7 13.6-0.05c3.5 0 6.193 0.84 8.08 2.52 1.88 1.687 2.82 4.097 2.82 7.23v0c0 1.967-0.5 3.8-1.5 5.5-1 1.7-2.417 3.133-4.25 4.3zM173.55 9.95l-0.2 9.9 4.35 0.2c1.233-0.467 2.14-1.15 2.72-2.05 0.587-0.9 0.88-2.067 0.88-3.5v0c0-1.567-0.41-2.727-1.23-3.48-0.813-0.747-2.087-1.153-3.82-1.22v0z" fill="#008080" fill-rule="nonzero" stroke="none" stroke-width="1" stroke-linecap="butt" stroke-linejoin="miter" stroke-miterlimit="10" stroke-dasharray="" stroke-dashoffset="0" font-family="none" font-weight="none" font-size="none" text-anchor="none" style="mix-blend-mode: normal" data-fill-palette-color="primary" opacity="1"></path></g></svg></g></svg></g></svg></g></svg></g><g transform="matrix(1,0,0,1,0,0.30074101382487584)"><svg viewBox="0 0 150.94031026877315 120.29640552995389" height="120.29640552995389" width="150.94031026877315"><g><svg xmlns="http://www.w3.org/2000/svg" xmlns:xlink="http://www.w3.org/1999/xlink" version="1.1" x="0" y="0" viewBox="0 10.152000427246094 100 79.697998046875" enable-background="new 0 0 100 100" xml:space="preserve" height="120.29640552995389" width="150.94031026877315" class="icon-icon-0" data-fill-palette-color="accent" id="icon-0"><g fill="#008080" data-fill-palette-color="accent"><g fill="#008080" data-fill-palette-color="accent"><path d="M84.107 72.352H15.893L0 89.85h100L84.107 72.352zM33.171 82.354H12.717l2.18-2.513h18.999L33.171 82.354zM39.353 82.354l0.728-2.513h19.838l0.728 2.513H39.353zM66.104 79.842h19.002l2.177 2.514H66.827L66.104 79.842z" fill="#008080" data-fill-palette-color="accent"></path><g fill="#008080" data-fill-palette-color="accent"><path d="M51.166 18.255c-0.031 0-0.063 0.001-0.094 0.001-0.028 0-0.061-0.001-0.092-0.001H51.166z" fill="#008080" data-fill-palette-color="accent"></path><path d="M50.447 10.152c-11.112 0-20.121 9.009-20.121 20.122 0 8.734 5.573 16.146 13.349 18.93l6.771 18.431 6.777-18.431c7.771-2.785 13.346-10.196 13.346-18.93C70.568 19.161 61.559 10.152 50.447 10.152zM58.036 29.938v9.056h-6.451v-5.413h-2.913v5.413h-6.456v-9.056h-2.499l10.411-10.613 3.744 3.818v-1.947h2.915v4.92l3.749 3.822H58.036z" fill="#008080" data-fill-palette-color="accent"></path></g></g></g></svg></g></svg></g></svg></g><defs></defs></svg><rect width="395.52" height="82.80259736381268" fill="none" stroke="none" visibility="hidden"></rect></g></svg></g></svg>